<?xml version="1.0" encoding="UTF-8"?><svg id="Layer_1" xmlns="http://www.w3.org/2000/svg" viewBox="0 0 107.01 101.65"><defs><style>.cls-1{fill:#2b2b2b;}</style></defs><path class="cls-1" d="M30.17,34.26c6.83,6.52,14.45,12.22,21.41,18.61,3.8,3.49,7.27,7.32,10.82,11.07,2.93,3.1,5.99,6.98,9.43,9.45,5.24,3.76,10.24-4.91,5.05-8.63,1.04.74.28.19-.22-.47-.75-.97-1.55-1.78-2.43-2.63-1.62-1.57-3.2-3.15-4.75-4.79-3.76-3.97-7.44-8.03-11.52-11.7-6.8-6.11-14.11-11.67-20.71-17.98-4.65-4.45-11.74,2.62-7.07,7.07h0Z"/><path class="cls-1" d="M70.51,28.16c-7.39,5.79-13.98,12.32-20.38,19.16-5.91,6.31-12.99,11.75-19.66,17.24-4.97,4.09,2.14,11.13,7.07,7.07,6.67-5.49,13.74-10.93,19.66-17.24,6.4-6.83,12.99-13.37,20.38-19.16,5.06-3.97-2.06-11-7.07-7.07h0Z"/><path class="cls-1" d="M33.55,4.23C-.93,18.77-6.72,80.65,30.94,95.21c18.76,7.25,42.02,1.11,56.62-12.2,16.16-14.73,20.06-38.35,7.36-56.63C81.94,7.7,55.58-3.85,33.55,4.23c-5.99,2.2-3.4,11.87,2.66,9.64,32.46-11.9,74.89,28.06,47.88,58.44-9.98,11.22-25.91,17.29-40.83,15.68-18.81-2.03-28.2-17.56-27.94-35.26.22-14.83,6.21-32.67,20.9-38.86,5.84-2.46,3.27-12.14-2.66-9.64Z"/></svg>